<svg xmlns="http://www.w3.org/2000/svg" viewBox="0 0 110.99 64.78"><defs><style>.cls-1,.cls-2{fill:#fff;}.cls-1{stroke:#fff;stroke-linecap:round;stroke-linejoin:round;stroke-width:3px;}</style></defs><title>r2-logo-white</title><g id="Layer_2" data-name="Layer 2"><g id="colours"><path class="cls-1" d="M75.6,20.29h1.06V28a13.9,13.9,0,0,1,1.27-3A11.22,11.22,0,0,1,80,22.33a10,10,0,0,1,2.88-1.9,8.94,8.94,0,0,1,3.65-.72v1h-.24a7.56,7.56,0,0,0-4,1.1,11.21,11.21,0,0,0-3,2.76,13.17,13.17,0,0,0-1.92,3.63,11.37,11.37,0,0,0-.67,3.69V44.29H75.6Z"/><path class="cls-1" d="M93.38,43.84l10.78-10.43A31,31,0,0,0,106.37,31a12.85,12.85,0,0,0,1.29-1.91,6.35,6.35,0,0,0,.59-1.56,6.06,6.06,0,0,0,.16-1.36,4.85,4.85,0,0,0-.46-2.06,5.52,5.52,0,0,0-1.29-1.72,6.23,6.23,0,0,0-2-1.17,7.41,7.41,0,0,0-2.55-.42,7.27,7.27,0,0,0-4.46,1.36,10.35,10.35,0,0,0-3,3.43l-.64-.37a10.56,10.56,0,0,1,3.2-3.66,9,9,0,0,1,7.75-1,7.07,7.07,0,0,1,2.21,1.29,5.75,5.75,0,0,1,1.42,1.91,5.34,5.34,0,0,1,.51,2.31v.07a7.88,7.88,0,0,1-.15,1.54,6.16,6.16,0,0,1-.64,1.67,14.06,14.06,0,0,1-1.4,2A32.87,32.87,0,0,1,104.6,34l-10,9.66h14.89v.68H93.38Z"/><path class="cls-2" d="M8.11,21.1A8.1,8.1,0,0,0,4,36.16l0,7.37a5.13,5.13,0,1,0,4,0Z"/><path class="cls-2" d="M50.51,21.1a8.1,8.1,0,0,1,4.16,15.06l0,7.37a5.12,5.12,0,1,1-4,0Z"/><path class="cls-2" d="M18.65,49.92a7.94,7.94,0,0,1-7.94-8V39H47.86V42a8,8,0,0,1-8,8H32.42v5.59a5.12,5.12,0,1,1-6,0V49.92Z"/><path class="cls-2" d="M32.42,0h7.49a8,8,0,0,1,8,7.94V18.28H10.71V7.94A7.94,7.94,0,0,1,18.65,0H32.42Zm-3.2,5.21a4.45,4.45,0,1,0,4.45,4.45A4.45,4.45,0,0,0,29.22,5.21Z"/><circle class="cls-2" cx="29.22" cy="9.66" r="2.82"/><path class="cls-2" d="M47.73,36.59h-37V20.71h37ZM39.55,25.13H18.89v1.63H39.55Zm0,2.59H18.89v1.64H39.55Zm0,2.6H18.89V32H39.55Z"/></g></g></svg>